<svg xmlns="http://www.w3.org/2000/svg" viewBox="0 0 40 40" height="40" width="40"><title>icon</title><g class="nc-icon-wrapper js-transition-icon" data-effect="scale" data-event="click"><g class="js-transition-icon__state" style="display: block;" transform="translate(0 0) scale(1)"><path fill-rule="evenodd" clip-rule="evenodd" d="M20 40C31.0457 40 40 31.0457 40 20C40 8.95432 31.0457 0 20 0C8.95432 0 0 8.95432 0 20C0 31.0457 8.95432 40 20 40ZM20 14.618L16 16.618V23.382L20 25.382V14.618ZM22 11.382L14.7639 15H11C9.89542 15 9 15.8954 9 17V23C9 24.1046 9.89542 25 11 25H14.7639L22 28.618V11.382ZM11 17H14V23H11V17ZM31 20C31 16.5681 29.7136 13.4807 27.6791 11.4567L26.1031 12.7175C27.8488 14.3464 29 16.9878 29 20C29 23.0122 27.8488 25.6536 26.1031 27.2825L27.6791 28.5433C29.7136 26.5193 31 23.4319 31 20ZM24.5748 13.9402C26.0649 15.4124 27 17.5893 27 20C27 22.4107 26.0649 24.5876 24.5748 26.0598L22.9973 24.7978C24.2072 23.7083 25 21.9743 25 20C25 18.0257 24.2072 16.2917 22.9973 15.2022L24.5748 13.9402Z" fill="white"/></g><g class="js-transition-icon__state" display="none" transform="translate(3.999999999999999 3.999999999999999) scale(0.80)" style="display: none;" aria-hidden="true"><path fill-rule="evenodd" clip-rule="evenodd" d="M20 40C31.0457 40 40 31.0457 40 20C40 8.9543 31.0457 0 20 0C8.9543 0 0 8.9543 0 20C0 31.0457 8.9543 40 20 40ZM9.29289 11.7071L10.7071 10.2929L30.7071 30.2929L29.2929 31.7071L22 24.4142V29.618L14.7639 26H11C9.89543 26 9 25.1046 9 24V18C9 16.8954 9.89543 16 11 16H13.5858L9.29289 11.7071ZM16 18.4142L20 22.4142V26.382L16 24.382V18.4142ZM20 16.7858V15.618L19.2215 16.0073L17.7308 14.5166L22 12.382V18.7858L20 16.7858ZM26.6654 23.4512L24.9616 21.7474C24.9869 21.5028 25 21.2534 25 21C25 19.0257 24.2072 17.2917 22.9973 16.2022L24.5748 14.9402C26.0649 16.4124 27 18.5893 27 21C27 21.8533 26.8828 22.6773 26.6654 23.4512ZM29.7717 26.5575L28.2542 25.04C28.7304 23.8287 29 22.4577 29 21C29 17.9878 27.8488 15.3464 26.1031 13.7175L27.6791 12.4567C29.7136 14.4807 31 17.5681 31 21C31 23.0209 30.5539 24.9223 29.7717 26.5575ZM11 18H14V24H11V18Z" fill="white"/></g></g><script>!function(){"use strict";if(!window.requestAnimationFrame){var a=null;window.requestAnimationFrame=function(t,i){var e=(new Date).getTime();a||(a=e);var s=Math.max(0,16-(e-a)),n=window.setTimeout(function(){t(e+s)},s);return a=e+s,n}}function r(t,i,e,s){return 1>(t/=s/2)?e/2*t*t*t*t+i:-e/2*((t-=2)*t*t*t-2)+i}function e(t){return t?[1,0]:[0,1]}function t(t){this.element=t,this.svg=function t(i){var e=i.parentNode;if("svg"!==e.tagName)e=t(e);return e;}(this.element),this.getSize(),this.states=this.element.querySelectorAll(".js-transition-icon__state"),this.time={start:null,total:200},this.status={interacted:!1,animating:!1},this.animation={effect:this.element.getAttribute("data-effect"),event:this.element.getAttribute("data-event")},this.init()}t.prototype.getSize=function(){var t=this.svg.getAttribute("viewBox");this.size=t?{width:t.split(" ")[2],height:t.split(" ")[3]}:this.svg.getBoundingClientRect()},t.prototype.init=function(){var t=this;this.svg.addEventListener(t.animation.event,function(){t.status.animating||(t.status.animating=!0,window.requestAnimationFrame(t.triggerAnimation.bind(t)))})},t.prototype.triggerAnimation=function(t){var i=this.getProgress(t);this.animateIcon(i),this.checkProgress(i)},t.prototype.getProgress=function(t){return this.time.start||(this.time.start=t),t-this.time.start},t.prototype.checkProgress=function(t){if(this.time.total>t)window.requestAnimationFrame(this.triggerAnimation.bind(this));else{this.status={interacted:!this.status.interacted,animating:!1},this.time.start=null;var i=e(this.status.interacted);this.states[i[0]].removeAttribute("aria-hidden"),this.states[i[1]].setAttribute("aria-hidden","true")}},t.prototype.animateIcon=function(t){if(t>this.time.total){t=this.time.total;}if(0>t){t=0;};var i=e(this.status.interacted);this.states[i[0]].style.display=t>this.time.total/2?"none":"block",this.states[i[1]].style.display=t>this.time.total/2?"block":"none","scale"==this.animation.effect?this.scaleIcon(t,i[0],i[1]):this.rotateIcon(t,i[0],i[1])},t.prototype.scaleIcon=function(t,i,e){var s=r(Math.min(t,this.time.total/2),1,-.2,this.time.total/2).toFixed(2),n=r(Math.max(t-this.time.total/2,0),.2,-.2,this.time.total/2).toFixed(2);this.states[i].setAttribute("transform","translate("+this.size.width*(1-s)/2+" "+this.size.height*(1-s)/2+") scale("+s+")"),this.states[e].setAttribute("transform","translate("+this.size.width*n/2+" "+this.size.height*n/2+") scale("+(1-n)+")")},t.prototype.rotateIcon=function(t,i,e){var s=r(t,0,180,this.time.total).toFixed(2);this.states[i].setAttribute("transform","rotate(-"+s+" "+this.size.width/2+" "+this.size.height/2+")"),this.states[e].setAttribute("transform","rotate("+(180-s)+" "+this.size.width/2+" "+this.size.height/2+")")};var i=document.querySelectorAll(".js-transition-icon");if(i)for(var s=0;i.length>s;s++)new t(i[s])}();</script></svg>